<?xml version="1.0" encoding="UTF-8"?><svg id="Layer_1" xmlns="http://www.w3.org/2000/svg" viewBox="0 0 547.76 78.48"><defs><style>.cls-1{fill:#ddebb7;}.cls-2{fill:#1b4751;}</style></defs><g><path class="cls-2" d="M136.93,71.05c-5.3,0-9.76-.86-13.38-2.57-3.62-1.7-6.39-4.15-8.3-7.33-1.92-3.18-2.96-6.97-3.14-11.4h10.61c.12,3.65,1.48,6.54,4.11,8.66,2.62,2.12,6.2,3.19,10.73,3.19h.88c3.53,0,6.29-.8,8.26-2.39s2.96-3.57,2.96-5.92c0-2.12-.62-3.82-1.85-5.08s-3.33-2.19-6.27-2.78l-10.51-2.12c-5.3-1.11-9.26-3.15-11.88-6.1-2.62-2.94-3.93-6.8-3.93-11.57,0-3.24,.91-6.25,2.74-9.02,1.83-2.77,4.48-4.99,7.95-6.67,3.48-1.68,7.54-2.52,12.19-2.52s8.8,.84,12.28,2.52c3.47,1.68,6.14,4.03,8,7.02,1.85,3.01,2.81,6.49,2.87,10.43h-10.6c-.24-3.29-1.47-5.87-3.71-7.73-2.24-1.85-5.12-2.78-8.66-2.78h-.88c-2.3,0-4.33,.37-6.1,1.11-1.77,.73-3.12,1.75-4.06,3.05s-1.41,2.71-1.41,4.23c0,2.19,.65,3.89,1.94,5.13,1.3,1.24,3.3,2.12,6.01,2.65l9.54,1.85c5.48,1.12,9.67,3.12,12.59,6,2.92,2.89,4.37,6.81,4.37,11.76,0,3.59-.93,6.77-2.78,9.54s-4.55,4.93-8.08,6.49c-3.54,1.56-7.69,2.34-12.46,2.34Z"/><path class="cls-2" d="M189.68,71.05c-3.77,0-7.25-.9-10.43-2.7-3.18-1.8-5.73-4.43-7.64-7.91-1.92-3.47-2.87-7.6-2.87-12.37s.88-8.71,2.65-12.15c1.77-3.44,4.24-6.11,7.42-8,3.18-1.88,6.74-2.83,10.69-2.83s7.65,.9,10.6,2.7c2.94,1.8,5.18,4.29,6.71,7.46,1.53,3.18,2.3,6.83,2.3,10.96,0,.76-.01,1.52-.04,2.25-.03,.74-.08,1.49-.13,2.25h-30.3c.18,2.47,.81,4.61,1.9,6.41s2.46,3.19,4.11,4.16c1.65,.97,3.33,1.46,5.04,1.46h.7c2.18,0,4.03-.56,5.57-1.68,1.53-1.11,2.5-2.62,2.92-4.51h10.07c-.94,4.42-3.12,7.94-6.54,10.56-3.42,2.62-7.66,3.93-12.72,3.93Zm9.45-28.18c-.18-3.06-1.15-5.41-2.92-7.02-1.77-1.62-3.95-2.43-6.54-2.43h-.71c-2.53,0-4.74,.81-6.63,2.43-1.89,1.62-3.03,3.96-3.45,7.02h20.23Z"/><path class="cls-2" d="M219.19,70.17V25.99h10.16v6.27c1.47-2.29,3.35-4.06,5.65-5.3,2.3-1.24,4.83-1.85,7.6-1.85,3.18,0,5.98,.66,8.39,1.98,2.41,1.33,4.27,3.29,5.56,5.88,1.59-2.71,3.68-4.7,6.27-5.97,2.59-1.27,5.36-1.9,8.3-1.9,3.53,0,6.48,.69,8.84,2.08,2.35,1.38,4.11,3.31,5.26,5.79,1.15,2.47,1.72,5.33,1.72,8.56v28.63h-10.16v-27.03c0-3.12-.62-5.48-1.85-7.07-1.24-1.6-3.18-2.39-5.83-2.39h-.71c-1.83,0-3.52,.5-5.08,1.5-1.56,1-2.81,2.4-3.75,4.19-.95,1.8-1.42,3.85-1.42,6.14v24.65h-10.16v-27.03c0-3.12-.62-5.48-1.85-7.07-1.24-1.6-3.18-2.39-5.83-2.39h-.71c-1.83,0-3.52,.5-5.08,1.5s-2.81,2.4-3.75,4.19c-.94,1.8-1.41,3.85-1.41,6.14v24.65h-10.16Z"/><path class="cls-2" d="M298.87,70.17V25.99h10.16v6.27c1.47-2.29,3.35-4.06,5.65-5.3,2.3-1.24,4.83-1.85,7.6-1.85,3.18,0,5.98,.66,8.39,1.98,2.41,1.33,4.27,3.29,5.56,5.88,1.59-2.71,3.68-4.7,6.27-5.97s5.36-1.9,8.3-1.9c3.53,0,6.48,.69,8.84,2.08,2.35,1.38,4.11,3.31,5.26,5.79,1.15,2.47,1.72,5.33,1.72,8.56v28.63h-10.16v-27.03c0-3.12-.62-5.48-1.85-7.07-1.24-1.6-3.18-2.39-5.83-2.39h-.71c-1.83,0-3.52,.5-5.08,1.5-1.56,1-2.81,2.4-3.75,4.19-.95,1.8-1.42,3.85-1.42,6.14v24.65h-10.16v-27.03c0-3.12-.62-5.48-1.85-7.07-1.24-1.6-3.18-2.39-5.83-2.39h-.71c-1.83,0-3.52,.5-5.08,1.5s-2.81,2.4-3.75,4.19c-.94,1.8-1.41,3.85-1.41,6.14v24.65h-10.16Z"/><path class="cls-2" d="M431.4,71.05c-3.77,0-7.25-.9-10.43-2.7-3.18-1.8-5.73-4.43-7.64-7.91-1.92-3.47-2.87-7.6-2.87-12.37s.88-8.71,2.65-12.15c1.77-3.44,4.24-6.11,7.42-8,3.18-1.88,6.74-2.83,10.69-2.83s7.65,.9,10.6,2.7c2.94,1.8,5.18,4.29,6.71,7.46,1.53,3.18,2.3,6.83,2.3,10.96,0,.76-.01,1.52-.04,2.25-.03,.74-.08,1.49-.13,2.25h-30.3c.18,2.47,.81,4.61,1.9,6.41,1.09,1.8,2.46,3.19,4.11,4.16,1.65,.97,3.33,1.46,5.04,1.46h.7c2.18,0,4.03-.56,5.57-1.68,1.53-1.11,2.5-2.62,2.92-4.51h10.07c-.94,4.42-3.12,7.94-6.54,10.56-3.42,2.62-7.66,3.93-12.72,3.93Zm9.45-28.18c-.18-3.06-1.15-5.41-2.92-7.02-1.77-1.62-3.95-2.43-6.54-2.43h-.71c-2.53,0-4.74,.81-6.63,2.43-1.89,1.62-3.03,3.96-3.45,7.02h20.23Z"/><path class="cls-2" d="M479.64,71.05c-4.18,0-7.88-.98-11.09-2.92-3.21-1.94-5.7-4.65-7.47-8.12-1.77-3.48-2.65-7.46-2.65-11.93s.88-8.46,2.65-11.93c1.77-3.47,4.26-6.18,7.47-8.13,3.21-1.94,6.91-2.91,11.09-2.91,3.65,0,6.85,.62,9.59,1.85,2.74,1.24,4.93,3.05,6.58,5.44,1.65,2.38,2.62,5.28,2.92,8.7h-10.16c-.36-2.36-1.28-4.23-2.79-5.61-1.5-1.39-3.43-2.08-5.78-2.08h-.71c-2.42,0-4.42,.66-6.01,1.98-1.59,1.33-2.77,3.1-3.53,5.31s-1.15,4.67-1.15,7.38c0,4.18,.9,7.67,2.7,10.47s4.46,4.2,8,4.2h.71c2.35,0,4.29-.7,5.78-2.08,1.5-1.39,2.43-3.26,2.79-5.61h10.16c-.41,5.18-2.31,9.14-5.7,11.88-3.39,2.74-7.85,4.11-13.39,4.11Z"/><path class="cls-2" d="M508.26,70.17V8.32h10.16v24.03c1.41-2.24,3.28-4,5.61-5.3,2.33-1.29,5.02-1.94,8.09-1.94,3.42,0,6.29,.68,8.61,2.03,2.33,1.36,4.08,3.26,5.26,5.7,1.18,2.44,1.77,5.28,1.77,8.53v28.8h-10.16v-27.3c0-2.01-.3-3.71-.88-5.13-.59-1.42-1.46-2.49-2.61-3.22-1.15-.74-2.61-1.11-4.38-1.11h-.7c-1.89,0-3.64,.52-5.26,1.55-1.62,1.03-2.92,2.47-3.89,4.33s-1.46,3.93-1.46,6.23v24.65h-10.16Z"/><g><path class="cls-2" d="M393.07,26V11.64h-10.16v14.36h-9.42v8.39h29.74v-8.39h-10.16Z"/><path class="cls-2" d="M404.58,61.44v8.76h-10.97c-3.46,0-6.04-.96-7.95-2.8-1.84-1.84-2.72-4.49-2.72-7.95v-23.56c5.6,0,10.16,4.49,10.16,10.09v11.12c0,1.69,.29,2.87,.88,3.46,.59,.59,1.69,.88,3.39,.88h7.22Z"/></g></g><g><path class="cls-1" d="M22.42,67.27c12.38,0,22.42-10.04,22.42-22.42H22.42v22.42Z"/><path class="cls-1" d="M22.42,22.42c12.38,0,22.42-10.04,22.42-22.42H22.42V22.42Z"/><path class="cls-1" d="M61.88,56.06c-12.38,0-22.42,10.04-22.42,22.42h22.42s0-22.42,0-22.42Z"/><path class="cls-1" d="M0,22.42c0,12.38,10.04,22.42,22.42,22.42V22.42H0Z"/><path class="cls-1" d="M61.88,11.21c-12.38,0-22.42,10.04-22.42,22.42h22.42V11.21Z"/><path class="cls-1" d="M84.31,56.06c0-12.38-10.04-22.42-22.42-22.42v22.42h22.42Z"/></g></svg>